:SAMPLES-PER-SECOND 30
:FULLY-SPECIFIED
:DEGREES
52
root  -47.1127 37.6865 -16.607 10.2205 -28.3499 0.881882
RightUpLeg  -36.2669 -15.204 -15.0803
RightLeg  12.4948 -2.20801 -0.47777
RightFoot  4.62228 -1.63183 11.7798
RightToes  0.00048216 0.542163 -0.142577
Spine  52.556 -5.60611 9.43894
Spine1  10.8474 -1.33155 0.501865
HEad  -21.7798 -11.3128 -3.4953
LeftShoulder1  7.4189 -19.2207 -26.4468
LeftArm  -20.2833 -50.9756 -35.9187
LeftForeArm  27.0872 -3.98319 -3.101
LeftHand  -0.25398 0.0180481 5.50724
RightShoulder  3.41955 10.5563 17.7532
RightArm  -27.2697 51.9321 12.907
RightForeArm  10.2659 1.86661 5.43788
RightHand  -0.949075 3.06042 -13.2699
LeftUpLeg  -40.3271 6.85636 -5.84804
LeftLeg  43.5696 1.26359 1.69228
LeftFoot  -11.0355 0.0480835 7.11177
LeftToes  1.06248e-005 4.65856e-005 -8.18499e-006
53
root  -48.7817 37.2797 -17.1349 12.4533 -24.9258 1.45581
RightUpLeg  -41.7048 -19.0015 -12.0685
RightLeg  18.7556 0.574264 0.427872
RightFoot  8.69825 -2.22269 12.9166
RightToes  0.00048216 0.542163 -0.142577
Spine  54.005 -5.8284 10.5541
Spine1  10.3439 -0.698127 0.101593
HEad  -25.0666 -13.029 -1.09472
LeftShoulder1  7.64998 -19.944 -26.4181
LeftArm  -19.0011 -58.3476 -36.3146
LeftForeArm  26.9409 -0.101211 -3.34331
LeftHand  -0.25398 0.0180481 5.50724
RightShoulder  3.22118 10.8656 15.6806
RightArm  -30.3517 53.2423 10.3076
RightForeArm  11.1701 0.418699 4.87551
RightHand  -0.82688 2.81131 -11.9384
LeftUpLeg  -45.7625 8.57113 -5.56994
LeftLeg  48.0409 1.34485 2.06139
LeftFoot  -9.78558 -0.0007157 4.64636
LeftToes  1.06248e-005 4.65856e-005 -8.18499e-006
54
root  -50.3811 36.9093 -17.5897 15.5613 -22.5304 1.34918
RightUpLeg  -49.2219 -23.9194 -6.01157
RightLeg  25.8954 3.54245 1.58596
RightFoot  9.17129 -2.00955 11.3665
RightToes  0.00048216 0.542163 -0.142577
Spine  55.4894 -5.94882 11.3646
Spine1  9.89791 0.241243 -0.773074
HEad  -28.431 -13.5364 0.257719
LeftShoulder1  7.51903 -20.3299 -25.2894
LeftArm  -18.3291 -64.2243 -37.173
LeftForeArm  26.5936 1.93929 -3.45958
LeftHand  -0.25398 0.0180481 5.50724
RightShoulder  2.9786 11.274 13.2002
RightArm  -34.7469 55.5359 6.55448
RightForeArm  12.3694 -1.3844 4.1774
RightHand  -0.707105 2.67529 -10.421
LeftUpLeg  -52.4769 14.4572 -7.99231
LeftLeg  51.7513 3.04297 4.61839
LeftFoot  -7.77807 -0.0277466 2.33789
LeftToes  1.06248e-005 4.65856e-005 -8.18499e-006
55
root  -51.8293 36.7434 -17.9502 19.4023 -20.832 0.253387
RightUpLeg  -56.1261 -25.4871 0.292256
RightLeg  31.2756 3.82121 2.2467
RightFoot  6.31459 -1.00771 6.71955
RightToes  0.00048216 0.542163 -0.142577
Spine  57.2628 -6.21554 12.2239
Spine1  9.6365 1.09043 -1.7066
HEad  -31.8496 -12.5975 0.673634
LeftShoulder1  7.37806 -20.727 -24.136
LeftArm  -19.9814 -68.5787 -35.0527
LeftForeArm  24.7836 2.66344 -3.52337
LeftHand  -0.25398 0.0180481 5.50724
RightShoulder  2.81921 11.9746 11.0471
RightArm  -41.2015 58.509 1.00594
RightForeArm  12.5754 -2.99082 3.38427
RightHand  -0.623359 2.61203 -9.28688
LeftUpLeg  -59.5878 22.2994 -13.3935
LeftLeg  52.6399 6.41672 9.36197
LeftFoot  -6.75642 -0.0421151 2.05769
LeftToes  1.06248e-005 4.65856e-005 -8.18499e-006
56
root  -53.1773 36.6789 -18.1981 23.4998 -19.1067 -0.87204
RightUpLeg  -61.6357 -25.1632 5.85922
RightLeg  34.394 2.76519 1.77622
RightFoot  3.64672 -0.323918 2.70581
RightToes  0.00048216 0.542163 -0.142577
Spine  59.1839 -6.71421 12.7455
Spine1  9.17905 1.53703 -2.71227
HEad  -35.2016 -10.571 0.84017
LeftShoulder1  7.14277 -21.2962 -22.3852
LeftArm  -24.4311 -71.3415 -30.1255
LeftForeArm  21.8394 3.08653 -3.3163
LeftHand  -0.25398 0.0180481 5.50724
RightShoulder  2.78183 12.9332 9.60809
RightArm  -48.8864 61.1129 -5.56021
RightForeArm  11.4196 -3.68832 2.66529
RightHand  -0.564637 2.83238 -8.23797
LeftUpLeg  -66.4153 28.228 -20.4279
LeftLeg  50.8422 10.0256 13.3544
LeftFoot  -8.30335 -0.0582253 4.30738
LeftToes  1.06248e-005 4.65856e-005 -8.18499e-006
57
root  -54.4502 36.596 -18.3299 27.4232 -16.9739 -1.17889
RightUpLeg  -66.2808 -24.2502 9.66591
RightLeg  36.5175 1.01273 0.538011
RightFoot  2.31532 -0.118506 1.13899
RightToes  0.00048216 0.542163 -0.142577
Spine  60.9422 -7.24599 12.835
Spine1  7.99689 1.77595 -3.74214
HEad  -38.0111 -8.63784 1.24079
LeftShoulder1  6.90818 -22.4302 -20.1048
LeftArm  -30.1152 -73.082 -24.9458
LeftForeArm  18.5576 4.03945 -2.60517
LeftHand  -0.25398 0.0180481 5.50724
RightShoulder  2.7267 13.3969 8.72261
RightArm  -55.4119 62.8281 -11.4177
RightForeArm  9.17113 -3.39797 2.39356
RightHand  -0.523162 3.62027 -7.05374
LeftUpLeg  -71.7644 30.359 -25.9684
LeftLeg  47.8996 11.6604 13.9205
LeftFoot  -10.6571 0.0205591 6.7373
LeftToes  1.06248e-005 4.65856e-005 -8.18499e-006
58
root  -55.6146 36.4963 -18.3861 30.8847 -14.7209 -1.05913
RightUpLeg  -70.612 -23.3963 12.5886
RightLeg  38.8139 -0.552124 -0.754653
RightFoot  0.793905 0.00856008 -0.0524428
RightToes  0.00048216 0.542163 -0.142577
Spine  62.7451 -7.52582 13.2379
Spine1  5.59511 2.29113 -4.74109
HEad  -39.6608 -7.99971 2.03679
LeftShoulder1  6.50386 -24.4567 -16.3901
LeftArm  -34.2763 -73.5948 -24.2949
LeftForeArm  15.1602 4.68649 -0.905638
LeftHand  -0.25398 0.0180481 5.50724
RightShoulder  2.68707 12.894 9.0022
RightArm  -59.4926 63.5549 -16.6407
RightForeArm  6.35679 -2.76 2.82479
RightHand  -0.455362 4.60664 -5.6429
LeftUpLeg  -75.6214 30.423 -28.4603
LeftLeg  45.707 10.3687 11.5864
LeftFoot  -11.3701 0.0699992 7.22601
LeftToes  1.06248e-005 4.65856e-005 -8.18499e-006
59
root  -56.6776 36.3958 -18.4117 33.6702 -12.7504 -0.848068
RightUpLeg  -74.4702 -22.8136 15.5518
RightLeg  41.1887 -1.54296 -1.73755
RightFoot  -1.46924 0.183344 -2.25048
RightToes  0.00048216 0.542163 -0.142577
Spine  64.2665 -7.60865 13.097
Spine1  4.52627 2.0803 -4.722
HEad  -41.5575 -6.7624 2.21465
LeftShoulder1  6.68077 -25.4698 -16.1551
LeftArm  -42.4795 -74.9471 -15.7969
LeftForeArm  8.93375 5.12358 -0.418479
LeftHand  -0.25398 0.0180481 5.50724
RightShoulder  2.27713 12.636 6.45944
RightArm  -63.7568 64.0758 -19.7751
RightForeArm  3.80105 -2.7175 2.52993
RightHand  -0.336554 5.37863 -4.01845
LeftUpLeg  -79.4823 30.7629 -30.2271
LeftLeg  44.9306 7.25013 8.08077
LeftFoot  -10.0847 -0.00909785 6.44869
LeftToes  1.06248e-005 4.65856e-005 -8.18499e-006
60
root  -57.6432 36.2659 -18.418 35.8594 -11.2518 -0.440155
RightUpLeg  -77.8529 -22.7407 18.7669
RightLeg  43.1389 -1.81785 -2.12906
RightFoot  -3.42164 0.283958 -4.40529
RightToes  0.00048216 0.542163 -0.142577
Spine  65.1973 -7.67317 12.4148
Spine1  4.77992 1.44865 -4.87086
HEad  -43.6832 -5.08721 2.22485
LeftShoulder1  7.12396 -25.8065 -17.52
LeftArm  -53.1457 -75.9816 -2.67961
LeftForeArm  2.00125 4.63616 -0.891953
LeftHand  -0.25398 0.0180481 5.50724
RightShoulder  1.75322 12.4744 2.9157
RightArm  -67.6294 64.4915 -21.0793
RightForeArm  0.337893 -2.85171 1.88584
RightHand  -0.263759 6.13173 -3.07939
LeftUpLeg  -83.7784 31.6391 -33.2086
LeftLeg  44.8877 4.16068 4.84161
LeftFoot  -8.12791 -0.117836 5.91368
LeftToes  1.06248e-005 4.65856e-005 -8.18499e-006
61
root  -58.4899 36.1206 -18.4067 37.7816 -10.1165 0.142593
RightUpLeg  -81.145 -23.1043 22.1979
RightLeg  44.6799 -1.43353 -1.83682
RightFoot  -4.69367 0.314049 -5.93583
RightToes  0.00048216 0.542163 -0.142577
Spine  65.7882 -7.64078 11.8172
Spine1  4.71074 1.33569 -5.93312
HEad  -44.806 -4.40804 2.50406
LeftShoulder1  6.65123 -26.8125 -14.9139
LeftArm  -54.721 -74.8417 -3.21326
LeftForeArm  -1.7356 1.51777 -0.222404
LeftHand  -0.25398 0.0180481 5.50724
RightShoulder  1.51302 11.7847 1.69646
RightArm  -68.4661 64.8136 -20.6742
RightForeArm  -5.26727 -2.15642 2.09674
RightHand  -0.411478 7.2841 -4.18764
LeftUpLeg  -87.522 32.114 -36.5319
LeftLeg  44.5742 1.8714 2.39018
LeftFoot  -6.82978 -0.191409 5.89539
LeftToes  1.06248e-005 4.65856e-005 -8.18499e-006
62
root  -59.202 35.9928 -18.3897 39.4784 -9.14777 0.44809
RightUpLeg  -84.1132 -23.3267 25.6794
RightLeg  46.044 -0.939716 -1.37675
RightFoot  -5.95319 0.312476 -7.49446
RightToes  0.00048216 0.542163 -0.142577
Spine  66.0871 -7.27688 11.2843
Spine1  4.92532 1.49339 -6.34282
HEad  -45.2537 -4.19157 2.1732
LeftShoulder1  6.9205 -26.8918 -15.8172
LeftArm  -55.887 -74.8709 -3.18047
LeftForeArm  -1.65072 -2.04593 -0.338405
LeftHand  -0.25398 0.0180481 5.50724
RightShoulder  1.31944 10.9993 0.794634
RightArm  -68.2886 65.2454 -18.4105
RightForeArm  -11.4138 -0.26998 2.42057
RightHand  -0.81226 8.84036 -7.0784
LeftUpLeg  -90.2252 32.1892 -38.7922
LeftLeg  43.9743 0.0821934 0.493855
LeftFoot  -6.34266 -0.217854 5.86113
LeftToes  1.06248e-005 4.65856e-005 -8.18499e-006
